<svg width="48" height="36" viewBox="0 0 48 36" fill="none" xmlns="http://www.w3.org/2000/svg">
<rect x="1" y="1" width="46" height="34" rx="5" fill="white"/>
<rect x="1" y="1" width="46" height="34" rx="5" stroke="#1B1B1B" stroke-width="2"/>
<path d="M19.0833 18.6666L23.8333 23.3333C24.1666 23.6666 24.6666 23.6666 24.9999 23.3333C25.3333 23 25.3333 22.5 24.9999 22.1666L20.9166 18L24.9999 13.8333C25.3333 13.5 25.3333 13 24.9999 12.6666C24.8333 12.5 24.6666 12.4166 24.4166 12.4166C24.1666 12.4166 23.9999 12.5 23.8333 12.6666L19.0833 17.3333C18.7499 17.75 18.7499 18.25 19.0833 18.6666C19.0833 18.5833 19.0833 18.5833 19.0833 18.6666Z" fill="#1B1B1B"/>
</svg>
