<svg width="17" height="17" viewBox="0 0 17 17" fill="none" xmlns="http://www.w3.org/2000/svg">
<path d="M4.25 3.4H3.4V0.85C3.4 0.624566 3.31045 0.408365 3.15104 0.248959C2.99163 0.0895533 2.77543 0 2.55 0C2.32457 0 2.10837 0.0895533 1.94896 0.248959C1.78955 0.408365 1.7 0.624566 1.7 0.85V3.4H0.85C0.624566 3.4 0.408365 3.48955 0.248959 3.64896C0.0895533 3.80837 0 4.02457 0 4.25C0 4.47543 0.0895533 4.69163 0.248959 4.85104C0.408365 5.01045 0.624566 5.1 0.85 5.1H4.25C4.47543 5.1 4.69163 5.01045 4.85104 4.85104C5.01045 4.69163 5.1 4.47543 5.1 4.25C5.1 4.02457 5.01045 3.80837 4.85104 3.64896C4.69163 3.48955 4.47543 3.4 4.25 3.4ZM2.55 6.8C2.32457 6.8 2.10837 6.88955 1.94896 7.04896C1.78955 7.20837 1.7 7.42457 1.7 7.65V16.15C1.7 16.3754 1.78955 16.5916 1.94896 16.751C2.10837 16.9104 2.32457 17 2.55 17C2.77543 17 2.99163 16.9104 3.15104 16.751C3.31045 16.5916 3.4 16.3754 3.4 16.15V7.65C3.4 7.42457 3.31045 7.20837 3.15104 7.04896C2.99163 6.88955 2.77543 6.8 2.55 6.8ZM8.5 13.6C8.27457 13.6 8.05837 13.6896 7.89896 13.849C7.73955 14.0084 7.65 14.2246 7.65 14.45V16.15C7.65 16.3754 7.73955 16.5916 7.89896 16.751C8.05837 16.9104 8.27457 17 8.5 17C8.72543 17 8.94164 16.9104 9.10104 16.751C9.26045 16.5916 9.35 16.3754 9.35 16.15V14.45C9.35 14.2246 9.26045 14.0084 9.10104 13.849C8.94164 13.6896 8.72543 13.6 8.5 13.6ZM16.15 6.8H15.3V0.85C15.3 0.624566 15.2104 0.408365 15.051 0.248959C14.8916 0.0895533 14.6754 0 14.45 0C14.2246 0 14.0084 0.0895533 13.849 0.248959C13.6896 0.408365 13.6 0.624566 13.6 0.85V6.8H12.75C12.5246 6.8 12.3084 6.88955 12.149 7.04896C11.9896 7.20837 11.9 7.42457 11.9 7.65C11.9 7.87543 11.9896 8.09163 12.149 8.25104C12.3084 8.41045 12.5246 8.5 12.75 8.5H16.15C16.3754 8.5 16.5916 8.41045 16.751 8.25104C16.9104 8.09163 17 7.87543 17 7.65C17 7.42457 16.9104 7.20837 16.751 7.04896C16.5916 6.88955 16.3754 6.8 16.15 6.8ZM14.45 10.2C14.2246 10.2 14.0084 10.2896 13.849 10.449C13.6896 10.6084 13.6 10.8246 13.6 11.05V16.15C13.6 16.3754 13.6896 16.5916 13.849 16.751C14.0084 16.9104 14.2246 17 14.45 17C14.6754 17 14.8916 16.9104 15.051 16.751C15.2104 16.5916 15.3 16.3754 15.3 16.15V11.05C15.3 10.8246 15.2104 10.6084 15.051 10.449C14.8916 10.2896 14.6754 10.2 14.45 10.2ZM10.2 10.2H9.35V0.85C9.35 0.624566 9.26045 0.408365 9.10104 0.248959C8.94164 0.0895533 8.72543 0 8.5 0C8.27457 0 8.05837 0.0895533 7.89896 0.248959C7.73955 0.408365 7.65 0.624566 7.65 0.85V10.2H6.8C6.57457 10.2 6.35837 10.2896 6.19896 10.449C6.03955 10.6084 5.95 10.8246 5.95 11.05C5.95 11.2754 6.03955 11.4916 6.19896 11.651C6.35837 11.8104 6.57457 11.9 6.8 11.9H10.2C10.4254 11.9 10.6416 11.8104 10.801 11.651C10.9604 11.4916 11.05 11.2754 11.05 11.05C11.05 10.8246 10.9604 10.6084 10.801 10.449C10.6416 10.2896 10.4254 10.2 10.2 10.2Z" fill="#1B1B1B"/>
</svg>
