<svg width="14" height="17" viewBox="0 0 14 17" fill="none" xmlns="http://www.w3.org/2000/svg">
<path d="M14 8.5C14 8.27457 13.9078 8.05837 13.7437 7.89896C13.5796 7.73955 13.3571 7.65 13.125 7.65H6.48375L8.49625 5.7035C8.57783 5.62425 8.64255 5.53016 8.6867 5.42661C8.73085 5.32306 8.75358 5.21208 8.75358 5.1C8.75358 4.98792 8.73085 4.87694 8.6867 4.77339C8.64255 4.66984 8.57783 4.57575 8.49625 4.4965C8.41467 4.41725 8.31781 4.35438 8.21122 4.31149C8.10462 4.2686 7.99038 4.24652 7.875 4.24652C7.75962 4.24652 7.64538 4.2686 7.53878 4.31149C7.43219 4.35438 7.33533 4.41725 7.25375 4.4965L3.75375 7.8965C3.67409 7.97734 3.61164 8.07266 3.57 8.177C3.48248 8.38394 3.48248 8.61606 3.57 8.823C3.61164 8.92734 3.67409 9.02266 3.75375 9.1035L7.25375 12.5035C7.33509 12.5832 7.43187 12.6464 7.5385 12.6896C7.64512 12.7327 7.75949 12.7549 7.875 12.7549C7.99051 12.7549 8.10488 12.7327 8.2115 12.6896C8.31813 12.6464 8.41491 12.5832 8.49625 12.5035C8.57826 12.4245 8.64336 12.3305 8.68778 12.2269C8.7322 12.1233 8.75507 12.0122 8.75507 11.9C8.75507 11.7878 8.7322 11.6767 8.68778 11.5731C8.64336 11.4695 8.57826 11.3755 8.49625 11.2965L6.48375 9.35H13.125C13.3571 9.35 13.5796 9.26045 13.7437 9.10104C13.9078 8.94164 14 8.72543 14 8.5ZM11.375 0H2.625C1.92881 0 1.26113 0.26866 0.768845 0.746878C0.276562 1.2251 0 1.8737 0 2.55V14.45C0 15.1263 0.276562 15.7749 0.768845 16.2531C1.26113 16.7313 1.92881 17 2.625 17H11.375C12.0712 17 12.7389 16.7313 13.2312 16.2531C13.7234 15.7749 14 15.1263 14 14.45V11.9C14 11.6746 13.9078 11.4584 13.7437 11.299C13.5796 11.1396 13.3571 11.05 13.125 11.05C12.8929 11.05 12.6704 11.1396 12.5063 11.299C12.3422 11.4584 12.25 11.6746 12.25 11.9V14.45C12.25 14.6754 12.1578 14.8916 11.9937 15.051C11.8296 15.2104 11.6071 15.3 11.375 15.3H2.625C2.39294 15.3 2.17038 15.2104 2.00628 15.051C1.84219 14.8916 1.75 14.6754 1.75 14.45V2.55C1.75 2.32457 1.84219 2.10837 2.00628 1.94896C2.17038 1.78955 2.39294 1.7 2.625 1.7H11.375C11.6071 1.7 11.8296 1.78955 11.9937 1.94896C12.1578 2.10837 12.25 2.32457 12.25 2.55V5.1C12.25 5.32543 12.3422 5.54164 12.5063 5.70104C12.6704 5.86045 12.8929 5.95 13.125 5.95C13.3571 5.95 13.5796 5.86045 13.7437 5.70104C13.9078 5.54164 14 5.32543 14 5.1V2.55C14 1.8737 13.7234 1.2251 13.2312 0.746878C12.7389 0.26866 12.0712 0 11.375 0Z" fill="#1B1B1B"/>
</svg>
